<svg width="32" height="32" viewBox="0 0 32 32" fill="none" xmlns="http://www.w3.org/2000/svg">
  <!-- Background circle with gradient -->
  <defs>
    <linearGradient id="bgGradient" x1="0%" y1="0%" x2="100%" y2="100%">
      <stop offset="0%" style="stop-color:#3B82F6;stop-opacity:1" />
      <stop offset="100%" style="stop-color:#1E40AF;stop-opacity:1" />
    </linearGradient>
    <linearGradient id="iconGradient" x1="0%" y1="0%" x2="100%" y2="100%">
      <stop offset="0%" style="stop-color:#FFFFFF;stop-opacity:1" />
      <stop offset="100%" style="stop-color:#E5E7EB;stop-opacity:1" />
    </linearGradient>
  </defs>
  
  <!-- Background -->
  <rect width="32" height="32" rx="6" fill="url(#bgGradient)"/>
  
  <!-- AI Brain/Network Icon -->
  <g transform="translate(6, 6)">
    <!-- Central node -->
    <circle cx="10" cy="10" r="2.5" fill="url(#iconGradient)"/>
    
    <!-- Surrounding nodes -->
    <circle cx="4" cy="4" r="1.5" fill="url(#iconGradient)" opacity="0.8"/>
    <circle cx="16" cy="4" r="1.5" fill="url(#iconGradient)" opacity="0.8"/>
    <circle cx="4" cy="16" r="1.5" fill="url(#iconGradient)" opacity="0.8"/>
    <circle cx="16" cy="16" r="1.5" fill="url(#iconGradient)" opacity="0.8"/>
    
    <!-- Connection lines -->
    <line x1="5.2" y1="5.2" x2="8.5" y2="8.5" stroke="url(#iconGradient)" stroke-width="1" opacity="0.6"/>
    <line x1="14.8" y1="5.2" x2="11.5" y2="8.5" stroke="url(#iconGradient)" stroke-width="1" opacity="0.6"/>
    <line x1="5.2" y1="14.8" x2="8.5" y2="11.5" stroke="url(#iconGradient)" stroke-width="1" opacity="0.6"/>
    <line x1="14.8" y1="14.8" x2="11.5" y2="11.5" stroke="url(#iconGradient)" stroke-width="1" opacity="0.6"/>
    
    <!-- Content management elements -->
    <rect x="2" y="8" width="3" height="1" rx="0.5" fill="url(#iconGradient)" opacity="0.7"/>
    <rect x="15" y="8" width="3" height="1" rx="0.5" fill="url(#iconGradient)" opacity="0.7"/>
    <rect x="8" y="2" width="1" height="3" rx="0.5" fill="url(#iconGradient)" opacity="0.7"/>
    <rect x="8" y="15" width="1" height="3" rx="0.5" fill="url(#iconGradient)" opacity="0.7"/>
  </g>
</svg>